<svg width="1442" height="280" viewBox="0 0 1442 280" fill="none" xmlns="http://www.w3.org/2000/svg">
<path d="M72.064 0C71.7227 3.24267 71.4667 6.4 71.296 9.472C71.2107 12.4587 71.168 14.7627 71.168 16.384C71.168 18.432 71.2107 20.352 71.296 22.144C71.3813 23.936 71.4667 25.5147 71.552 26.88H68.608C68.0107 20.9067 67.2 16.2133 66.176 12.8C65.152 9.30133 63.36 6.78399 60.8 5.24799C58.24 3.71199 54.272 2.94399 48.896 2.94399H41.984V75.776C41.984 79.1893 42.2827 81.7493 42.88 83.456C43.5627 85.1627 44.8427 86.3147 46.72 86.912C48.5973 87.5093 51.328 87.8933 54.912 88.064V90.624C52.6933 90.4533 49.8773 90.368 46.464 90.368C43.0507 90.2827 39.5947 90.24 36.096 90.24C32.256 90.24 28.6293 90.2827 25.216 90.368C21.888 90.368 19.2 90.4533 17.152 90.624V88.064C20.736 87.8933 23.4667 87.5093 25.344 86.912C27.2213 86.3147 28.4587 85.1627 29.056 83.456C29.7387 81.7493 30.08 79.1893 30.08 75.776V2.94399H23.168C17.8773 2.94399 13.9093 3.71199 11.264 5.24799C8.704 6.78399 6.912 9.30133 5.888 12.8C4.864 16.2133 4.05333 20.9067 3.456 26.88H0.512C0.682667 25.5147 0.768 23.936 0.768 22.144C0.853333 20.352 0.896 18.432 0.896 16.384C0.896 14.7627 0.810667 12.4587 0.64 9.472C0.554667 6.4 0.341333 3.24267 0 0C3.584 0.0853322 7.46667 0.170664 11.648 0.255997C15.9147 0.341329 20.1813 0.383995 24.448 0.383995C28.7147 0.383995 32.5973 0.383995 36.096 0.383995C39.5947 0.383995 43.4347 0.383995 47.616 0.383995C51.8827 0.383995 56.1493 0.341329 60.416 0.255997C64.6827 0.170664 68.5653 0.0853322 72.064 0Z" fill="white"/>
<path d="M185.868 90.624V88.064C188.769 87.8933 190.945 87.552 192.396 87.04C193.932 86.528 194.956 85.504 195.468 83.968C195.98 82.432 196.236 80.128 196.236 77.056V13.568C196.236 10.4107 195.98 8.10666 195.468 6.656C194.956 5.12 193.932 4.096 192.396 3.584C190.945 2.98666 188.769 2.64533 185.868 2.56V0C187.831 0.0853322 190.305 0.170664 193.292 0.255997C196.279 0.341329 199.223 0.383995 202.124 0.383995C205.452 0.383995 208.567 0.341329 211.468 0.255997C214.369 0.170664 216.716 0.0853322 218.508 0V2.56C215.607 2.64533 213.388 2.98666 211.852 3.584C210.401 4.096 209.42 5.12 208.908 6.656C208.396 8.10666 208.14 10.4107 208.14 13.568V77.056C208.14 80.128 208.396 82.432 208.908 83.968C209.42 85.504 210.401 86.528 211.852 87.04C213.388 87.552 215.607 87.8933 218.508 88.064V90.624C216.716 90.4533 214.369 90.368 211.468 90.368C208.567 90.2827 205.452 90.24 202.124 90.24C199.223 90.24 196.279 90.2827 193.292 90.368C190.305 90.368 187.831 90.4533 185.868 90.624ZM132.364 90.624V88.064C135.265 87.8933 137.441 87.552 138.892 87.04C140.428 86.528 141.452 85.504 141.964 83.968C142.476 82.432 142.732 80.128 142.732 77.056V13.568C142.732 10.4107 142.476 8.10666 141.964 6.656C141.452 5.12 140.428 4.096 138.892 3.584C137.441 2.98666 135.265 2.64533 132.364 2.56V0C134.156 0.0853322 136.503 0.170664 139.404 0.255997C142.305 0.341329 145.42 0.383995 148.748 0.383995C151.735 0.383995 154.679 0.341329 157.58 0.255997C160.567 0.170664 163.041 0.0853322 165.004 0V2.56C162.103 2.64533 159.884 2.98666 158.348 3.584C156.897 4.096 155.916 5.12 155.404 6.656C154.892 8.10666 154.636 10.4107 154.636 13.568V77.056C154.636 80.128 154.892 82.432 155.404 83.968C155.916 85.504 156.897 86.528 158.348 87.04C159.884 87.552 162.103 87.8933 165.004 88.064V90.624C163.041 90.4533 160.567 90.368 157.58 90.368C154.679 90.2827 151.735 90.24 148.748 90.24C145.42 90.24 142.305 90.2827 139.404 90.368C136.503 90.368 134.156 90.4533 132.364 90.624ZM150.156 46.336V43.776H200.716V46.336H150.156Z" fill="white"/>
<path d="M344.311 0C343.97 2.98666 343.714 5.888 343.543 8.70399C343.458 11.52 343.415 13.6533 343.415 15.104C343.415 16.64 343.458 18.1333 343.543 19.584C343.628 20.9493 343.714 22.1013 343.799 23.04H340.855C340.343 18.0053 339.618 14.0373 338.679 11.136C337.74 8.14933 336.119 6.05866 333.815 4.864C331.596 3.58399 328.226 2.94399 323.703 2.94399H313.079C310.178 2.94399 307.959 3.19999 306.423 3.712C304.972 4.13866 303.991 5.12 303.479 6.656C302.967 8.10666 302.711 10.4107 302.711 13.568V77.056C302.711 80.128 302.967 82.432 303.479 83.968C303.991 85.504 304.972 86.528 306.423 87.04C307.959 87.4667 310.178 87.68 313.079 87.68H322.423C327.799 87.68 331.852 86.9547 334.583 85.504C337.399 84.0533 339.404 81.7067 340.599 78.464C341.879 75.136 342.818 70.656 343.415 65.024H346.359C346.103 67.328 345.975 70.4 345.975 74.24C345.975 75.8613 346.018 78.208 346.103 81.28C346.274 84.2667 346.53 87.3813 346.871 90.624C342.519 90.4533 337.612 90.368 332.151 90.368C326.69 90.2827 321.826 90.24 317.559 90.24C315.682 90.24 313.25 90.24 310.263 90.24C307.362 90.24 304.204 90.2827 300.791 90.368C297.378 90.368 293.922 90.4107 290.423 90.496C286.924 90.496 283.596 90.5387 280.439 90.624V88.064C283.34 87.8933 285.516 87.552 286.967 87.04C288.503 86.528 289.527 85.504 290.039 83.968C290.551 82.432 290.807 80.128 290.807 77.056V13.568C290.807 10.4107 290.551 8.10666 290.039 6.656C289.527 5.12 288.503 4.096 286.967 3.584C285.516 2.98666 283.34 2.64533 280.439 2.56V0C283.596 0.0853322 286.924 0.170664 290.423 0.255997C293.922 0.255997 297.378 0.298663 300.791 0.383995C304.204 0.383995 307.362 0.383995 310.263 0.383995C313.25 0.383995 315.682 0.383995 317.559 0.383995C321.484 0.383995 325.922 0.383995 330.871 0.383995C335.906 0.298663 340.386 0.170664 344.311 0ZM322.295 43.776C322.295 43.776 322.295 44.2027 322.295 45.056C322.295 45.9093 322.295 46.336 322.295 46.336H298.871C298.871 46.336 298.871 45.9093 298.871 45.056C298.871 44.2027 298.871 43.776 298.871 43.776H322.295ZM326.007 26.88C325.666 31.744 325.495 35.456 325.495 38.016C325.58 40.576 325.623 42.9227 325.623 45.056C325.623 47.1893 325.666 49.536 325.751 52.096C325.836 54.656 326.05 58.368 326.391 63.232H323.447C323.106 60.5013 322.679 57.856 322.167 55.296C321.74 52.6507 320.716 50.5173 319.095 48.896C317.559 47.1893 314.914 46.336 311.159 46.336V43.776C313.975 43.776 316.108 43.2213 317.559 42.112C319.095 40.9173 320.204 39.424 320.887 37.632C321.57 35.84 322.039 34.0053 322.295 32.128C322.551 30.1653 322.807 28.416 323.063 26.88H326.007Z" fill="white"/>
<path d="M43.776 169.208C49.408 169.208 54.016 170.061 57.6 171.768C61.2693 173.389 64.512 175.309 67.328 177.528C69.0347 178.808 70.3147 178.979 71.168 178.04C72.1067 177.016 72.7467 174.669 73.088 171H76.032C75.8613 174.157 75.7333 177.997 75.648 182.52C75.5627 187.043 75.52 193.016 75.52 200.44H72.576C71.9787 196.771 71.424 193.869 70.912 191.736C70.4 189.517 69.76 187.64 68.992 186.104C68.3093 184.568 67.3707 183.032 66.176 181.496C63.5307 177.997 60.2027 175.48 56.192 173.944C52.1813 172.323 47.9573 171.512 43.52 171.512C39.3387 171.512 35.5413 172.579 32.128 174.712C28.8 176.76 25.8987 179.747 23.424 183.672C21.0347 187.597 19.1573 192.333 17.792 197.88C16.512 203.427 15.872 209.656 15.872 216.568C15.872 223.736 16.5973 230.093 18.048 235.64C19.4987 241.101 21.504 245.709 24.064 249.464C26.7093 253.219 29.7813 256.077 33.28 258.04C36.864 259.917 40.704 260.856 44.8 260.856C48.64 260.856 52.6507 260.088 56.832 258.552C61.0133 257.016 64.2987 254.541 66.688 251.128C68.5653 248.653 69.8453 245.965 70.528 243.064C71.296 240.163 71.9787 236.109 72.576 230.904H75.52C75.52 238.669 75.5627 244.941 75.648 249.72C75.7333 254.413 75.8613 258.381 76.032 261.624H73.088C72.7467 257.955 72.1493 255.651 71.296 254.712C70.528 253.773 69.2053 253.901 67.328 255.096C64.1707 257.315 60.8 259.277 57.216 260.984C53.7173 262.605 49.1947 263.416 43.648 263.416C35.5413 263.416 28.416 261.581 22.272 257.912C16.2133 254.243 11.4773 248.952 8.064 242.04C4.736 235.128 3.072 226.808 3.072 217.08C3.072 207.523 4.82133 199.16 8.32 191.992C11.8187 184.824 16.5973 179.235 22.656 175.224C28.8 171.213 35.84 169.208 43.776 169.208Z" fill="white"/>
<path d="M219.453 171V173.56C216.552 173.645 214.333 174.072 212.797 174.84C211.346 175.608 210.365 176.845 209.853 178.552C209.341 180.259 209.085 182.691 209.085 185.848V224.376C209.085 230.349 208.701 235.555 207.933 239.992C207.165 244.429 205.8 248.269 203.837 251.512C201.704 255.096 198.589 257.997 194.493 260.216C190.397 262.349 185.704 263.416 180.413 263.416C176.317 263.416 172.392 262.904 168.637 261.88C164.968 260.941 161.725 259.149 158.909 256.504C156.434 254.115 154.472 251.597 153.021 248.952C151.656 246.307 150.717 243.064 150.205 239.224C149.693 235.384 149.437 230.563 149.437 224.76V184.568C149.437 181.411 149.181 179.107 148.669 177.656C148.157 176.12 147.133 175.096 145.597 174.584C144.146 173.987 141.97 173.645 139.069 173.56V171C140.861 171.085 143.208 171.171 146.109 171.256C149.01 171.341 152.125 171.384 155.453 171.384C158.44 171.384 161.384 171.341 164.285 171.256C167.272 171.171 169.746 171.085 171.709 171V173.56C168.808 173.645 166.589 173.987 165.053 174.584C163.602 175.096 162.621 176.12 162.109 177.656C161.597 179.107 161.341 181.411 161.341 184.568V226.936C161.341 231.288 161.554 235.427 161.981 239.352C162.408 243.192 163.261 246.605 164.541 249.592C165.906 252.493 167.954 254.797 170.685 256.504C173.416 258.125 177.042 258.936 181.565 258.936C188.05 258.936 193.042 257.528 196.541 254.712C200.125 251.811 202.6 247.843 203.965 242.808C205.416 237.773 206.141 232.099 206.141 225.784V185.848C206.141 182.691 205.757 180.259 204.989 178.552C204.306 176.845 203.112 175.608 201.405 174.84C199.698 174.072 197.394 173.645 194.493 173.56V171C196.029 171.085 198.034 171.171 200.509 171.256C203.069 171.341 205.416 171.384 207.549 171.384C209.768 171.384 211.944 171.341 214.077 171.256C216.296 171.171 218.088 171.085 219.453 171Z" fill="white"/>
<path d="M312.079 171V173.56C309.178 173.645 306.959 173.987 305.423 174.584C303.972 175.096 302.991 176.12 302.479 177.656C301.967 179.107 301.711 181.411 301.711 184.568V248.056C301.711 251.128 301.967 253.432 302.479 254.968C302.991 256.504 303.972 257.528 305.423 258.04C306.959 258.467 309.178 258.68 312.079 258.68H321.423C325.434 258.68 328.676 258.253 331.151 257.4C333.711 256.547 335.716 255.224 337.167 253.432C338.703 251.555 339.855 249.08 340.623 246.008C341.391 242.936 341.988 239.181 342.415 234.744H345.359C345.103 237.389 344.975 240.888 344.975 245.24C344.975 246.861 345.018 249.208 345.103 252.28C345.274 255.267 345.53 258.381 345.871 261.624C341.519 261.453 336.612 261.368 331.151 261.368C325.69 261.283 320.826 261.24 316.559 261.24C314.682 261.24 312.25 261.24 309.263 261.24C306.362 261.24 303.204 261.283 299.791 261.368C296.378 261.368 292.922 261.411 289.423 261.496C285.924 261.496 282.596 261.539 279.439 261.624V259.064C282.34 258.893 284.516 258.552 285.967 258.04C287.503 257.528 288.527 256.504 289.039 254.968C289.551 253.432 289.807 251.128 289.807 248.056V184.568C289.807 181.411 289.551 179.107 289.039 177.656C288.527 176.12 287.503 175.096 285.967 174.584C284.516 173.987 282.34 173.645 279.439 173.56V171C281.231 171.085 283.578 171.171 286.479 171.256C289.38 171.341 292.495 171.384 295.823 171.384C298.81 171.384 301.754 171.341 304.655 171.256C307.642 171.171 310.116 171.085 312.079 171Z" fill="white"/>
<path d="M467.289 171C466.948 174.243 466.692 177.4 466.521 180.472C466.436 183.459 466.393 185.763 466.393 187.384C466.393 189.432 466.436 191.352 466.521 193.144C466.606 194.936 466.692 196.515 466.777 197.88H463.833C463.236 191.907 462.425 187.213 461.401 183.8C460.377 180.301 458.585 177.784 456.025 176.248C453.465 174.712 449.497 173.944 444.121 173.944H437.209V246.776C437.209 250.189 437.508 252.749 438.105 254.456C438.788 256.163 440.068 257.315 441.945 257.912C443.822 258.509 446.553 258.893 450.137 259.064V261.624C447.918 261.453 445.102 261.368 441.689 261.368C438.276 261.283 434.82 261.24 431.321 261.24C427.481 261.24 423.854 261.283 420.441 261.368C417.113 261.368 414.425 261.453 412.377 261.624V259.064C415.961 258.893 418.692 258.509 420.569 257.912C422.446 257.315 423.684 256.163 424.281 254.456C424.964 252.749 425.305 250.189 425.305 246.776V173.944H418.393C413.102 173.944 409.134 174.712 406.489 176.248C403.929 177.784 402.137 180.301 401.113 183.8C400.089 187.213 399.278 191.907 398.681 197.88H395.737C395.908 196.515 395.993 194.936 395.993 193.144C396.078 191.352 396.121 189.432 396.121 187.384C396.121 185.763 396.036 183.459 395.865 180.472C395.78 177.4 395.566 174.243 395.225 171C398.809 171.085 402.692 171.171 406.873 171.256C411.14 171.341 415.406 171.384 419.673 171.384C423.94 171.384 427.822 171.384 431.321 171.384C434.82 171.384 438.66 171.384 442.841 171.384C447.108 171.384 451.374 171.341 455.641 171.256C459.908 171.171 463.79 171.085 467.289 171Z" fill="white"/>
<path d="M606.053 171V173.56C603.152 173.645 600.933 174.072 599.397 174.84C597.946 175.608 596.965 176.845 596.453 178.552C595.941 180.259 595.685 182.691 595.685 185.848V224.376C595.685 230.349 595.301 235.555 594.533 239.992C593.765 244.429 592.4 248.269 590.437 251.512C588.304 255.096 585.189 257.997 581.093 260.216C576.997 262.349 572.304 263.416 567.013 263.416C562.917 263.416 558.992 262.904 555.237 261.88C551.568 260.941 548.325 259.149 545.509 256.504C543.034 254.115 541.072 251.597 539.621 248.952C538.256 246.307 537.317 243.064 536.805 239.224C536.293 235.384 536.037 230.563 536.037 224.76V184.568C536.037 181.411 535.781 179.107 535.269 177.656C534.757 176.12 533.733 175.096 532.197 174.584C530.746 173.987 528.57 173.645 525.669 173.56V171C527.461 171.085 529.808 171.171 532.709 171.256C535.61 171.341 538.725 171.384 542.053 171.384C545.04 171.384 547.984 171.341 550.885 171.256C553.872 171.171 556.346 171.085 558.309 171V173.56C555.408 173.645 553.189 173.987 551.653 174.584C550.202 175.096 549.221 176.12 548.709 177.656C548.197 179.107 547.941 181.411 547.941 184.568V226.936C547.941 231.288 548.154 235.427 548.581 239.352C549.008 243.192 549.861 246.605 551.141 249.592C552.506 252.493 554.554 254.797 557.285 256.504C560.016 258.125 563.642 258.936 568.165 258.936C574.65 258.936 579.642 257.528 583.141 254.712C586.725 251.811 589.2 247.843 590.565 242.808C592.016 237.773 592.741 232.099 592.741 225.784V185.848C592.741 182.691 592.357 180.259 591.589 178.552C590.906 176.845 589.712 175.608 588.005 174.84C586.298 174.072 583.994 173.645 581.093 173.56V171C582.629 171.085 584.634 171.171 587.109 171.256C589.669 171.341 592.016 171.384 594.149 171.384C596.368 171.384 598.544 171.341 600.677 171.256C602.896 171.171 604.688 171.085 606.053 171Z" fill="white"/>
<path d="M666.039 171C667.831 171.085 670.178 171.171 673.079 171.256C675.98 171.341 678.839 171.384 681.655 171.384C685.666 171.384 689.506 171.341 693.175 171.256C696.844 171.171 699.447 171.128 700.983 171.128C707.895 171.128 713.612 172.109 718.135 174.072C722.743 176.035 726.156 178.723 728.375 182.136C730.679 185.464 731.831 189.219 731.831 193.4C731.831 195.96 731.319 198.691 730.295 201.592C729.271 204.493 727.479 207.224 724.919 209.784C722.444 212.344 719.031 214.477 714.679 216.184C710.327 217.805 704.823 218.616 698.167 218.616H685.879V216.056H696.887C702.946 216.056 707.554 215.117 710.711 213.24C713.954 211.277 716.13 208.717 717.239 205.56C718.434 202.317 719.031 198.733 719.031 194.808C719.031 188.067 717.41 182.861 714.167 179.192C711.01 175.437 705.548 173.56 697.783 173.56C693.858 173.56 691.298 174.285 690.103 175.736C688.908 177.187 688.311 180.131 688.311 184.568V248.056C688.311 251.128 688.567 253.432 689.079 254.968C689.591 256.504 690.572 257.528 692.023 258.04C693.559 258.552 695.778 258.893 698.679 259.064V261.624C696.716 261.453 694.242 261.368 691.255 261.368C688.354 261.283 685.41 261.24 682.423 261.24C679.095 261.24 675.98 261.283 673.079 261.368C670.178 261.368 667.831 261.453 666.039 261.624V259.064C668.94 258.893 671.116 258.552 672.567 258.04C674.103 257.528 675.127 256.504 675.639 254.968C676.151 253.432 676.407 251.128 676.407 248.056V184.568C676.407 181.411 676.151 179.107 675.639 177.656C675.127 176.12 674.103 175.096 672.567 174.584C671.116 173.987 668.94 173.645 666.039 173.56V171ZM686.391 216.44C690.999 216.611 694.626 216.824 697.271 217.08C699.916 217.251 702.05 217.421 703.671 217.592C705.378 217.763 706.999 217.976 708.535 218.232C714.252 219.171 718.348 220.92 720.823 223.48C723.383 225.955 725.26 229.837 726.455 235.128L729.655 248.184C730.508 251.939 731.362 254.669 732.215 256.376C733.154 257.997 734.562 258.765 736.439 258.68C737.89 258.595 739.084 258.125 740.023 257.272C741.047 256.419 742.114 255.267 743.223 253.816L745.143 255.224C743.351 257.869 741.474 259.917 739.511 261.368C737.634 262.733 734.946 263.416 731.447 263.416C728.29 263.416 725.516 262.477 723.127 260.6C720.738 258.723 718.946 255.053 717.751 249.592L714.935 236.792C714.167 233.123 713.271 229.965 712.247 227.32C711.308 224.589 709.943 222.456 708.151 220.92C706.444 219.384 703.884 218.616 700.471 218.616H686.647L686.391 216.44Z" fill="white"/>
<path d="M836.207 170.36L867.439 250.872C868.719 254.115 870.17 256.291 871.791 257.4C873.412 258.424 874.906 258.979 876.271 259.064V261.624C874.564 261.453 872.474 261.368 869.999 261.368C867.524 261.283 865.05 261.24 862.575 261.24C859.247 261.24 856.132 261.283 853.231 261.368C850.33 261.368 847.983 261.453 846.191 261.624V259.064C850.543 258.893 853.316 258.168 854.511 256.888C855.706 255.523 855.45 252.664 853.743 248.312L829.935 184.696L831.983 183.032L809.711 240.888C808.346 244.301 807.535 247.203 807.279 249.592C807.023 251.896 807.236 253.731 807.919 255.096C808.687 256.461 809.924 257.443 811.631 258.04C813.423 258.637 815.642 258.979 818.287 259.064V261.624C815.898 261.453 813.38 261.368 810.735 261.368C808.175 261.283 805.786 261.24 803.567 261.24C801.434 261.24 799.599 261.283 798.063 261.368C796.612 261.368 795.247 261.453 793.967 261.624V259.064C795.674 258.637 797.423 257.656 799.215 256.12C801.007 254.499 802.628 251.768 804.079 247.928L834.159 170.36C834.5 170.36 834.842 170.36 835.183 170.36C835.524 170.36 835.866 170.36 836.207 170.36ZM851.823 224.76V227.32H813.679L814.959 224.76H851.823Z" fill="white"/>
<path d="M962.204 171V173.56C959.303 173.645 957.084 173.987 955.548 174.584C954.097 175.096 953.116 176.12 952.604 177.656C952.092 179.107 951.836 181.411 951.836 184.568V248.056C951.836 251.128 952.092 253.432 952.604 254.968C953.116 256.504 954.097 257.528 955.548 258.04C957.084 258.467 959.303 258.68 962.204 258.68H971.548C975.559 258.68 978.801 258.253 981.276 257.4C983.836 256.547 985.841 255.224 987.292 253.432C988.828 251.555 989.98 249.08 990.748 246.008C991.516 242.936 992.113 239.181 992.54 234.744H995.484C995.228 237.389 995.1 240.888 995.1 245.24C995.1 246.861 995.143 249.208 995.228 252.28C995.399 255.267 995.655 258.381 995.996 261.624C991.644 261.453 986.737 261.368 981.276 261.368C975.815 261.283 970.951 261.24 966.684 261.24C964.807 261.24 962.375 261.24 959.388 261.24C956.487 261.24 953.329 261.283 949.916 261.368C946.503 261.368 943.047 261.411 939.548 261.496C936.049 261.496 932.721 261.539 929.564 261.624V259.064C932.465 258.893 934.641 258.552 936.092 258.04C937.628 257.528 938.652 256.504 939.164 254.968C939.676 253.432 939.932 251.128 939.932 248.056V184.568C939.932 181.411 939.676 179.107 939.164 177.656C938.652 176.12 937.628 175.096 936.092 174.584C934.641 173.987 932.465 173.645 929.564 173.56V171C931.356 171.085 933.703 171.171 936.604 171.256C939.505 171.341 942.62 171.384 945.948 171.384C948.935 171.384 951.879 171.341 954.78 171.256C957.767 171.171 960.241 171.085 962.204 171Z" fill="white"/>
<path d="M1094.11 229.171C1091.46 221.982 1090.6 213.556 1091.53 203.891L1104.27 205.118C1103.64 212.031 1103.77 218.244 1104.66 223.757C1105.58 229.332 1107.14 234.112 1109.32 238.094C1111.6 242.085 1114.38 245.225 1117.68 247.514C1121.06 249.727 1124.8 251.029 1128.87 251.422C1132.69 251.79 1136.76 251.41 1141.07 250.282C1145.38 249.154 1148.89 247.006 1151.59 243.837C1153.7 241.554 1155.23 239.001 1156.19 236.178C1157.23 233.364 1158.3 229.395 1159.39 224.271L1162.32 224.553C1161.58 232.283 1161.02 238.53 1160.65 243.295C1160.28 247.974 1160.03 251.936 1159.89 255.181L1156.96 254.898C1156.97 251.213 1156.59 248.862 1155.84 247.846C1155.16 246.838 1153.83 246.839 1151.85 247.848C1148.49 249.754 1144.95 251.384 1141.22 252.74C1137.58 254.018 1133 254.391 1127.48 253.86C1119.41 253.082 1112.49 250.573 1106.73 246.332C1101.05 242.098 1096.84 236.378 1094.11 229.171Z" fill="white"/>
<path d="M1293.66 223.359L1296.59 223.641L1295.9 230.86C1295.33 236.806 1294.44 241.95 1293.25 246.294C1292.06 250.637 1290.34 254.328 1288.07 257.368C1285.61 260.731 1282.23 263.32 1277.94 265.136C1273.66 266.867 1268.88 267.479 1263.62 266.971C1259.54 266.579 1255.68 265.693 1252.04 264.313C1248.48 263.027 1245.42 260.933 1242.87 258.03C1240.64 255.414 1238.93 252.72 1237.74 249.948C1236.63 247.184 1236.01 243.866 1235.87 239.995C1235.72 236.123 1235.93 231.3 1236.49 225.524L1237.22 217.923L1249.07 219.064L1248.13 228.831C1247.71 233.163 1247.53 237.303 1247.58 241.251C1247.63 245.114 1248.15 248.594 1249.14 251.689C1250.22 254.708 1252.04 257.198 1254.59 259.159C1257.16 261.034 1260.69 262.189 1265.19 262.622C1271.65 263.244 1276.75 262.321 1280.5 259.854C1284.35 257.309 1287.19 253.597 1289.03 248.716C1290.96 243.844 1292.23 238.265 1292.83 231.979L1293.66 223.359Z" fill="white"/>
<path d="M1392.07 262.626L1394.91 233.111L1406.76 234.252L1403.91 263.767C1403.59 267.165 1403.64 269.742 1404.07 271.498C1404.59 273.262 1405.75 274.531 1407.56 275.306C1409.37 276.081 1412.05 276.725 1415.61 277.238L1415.36 279.786C1413.17 279.404 1410.37 279.049 1406.98 278.722C1403.59 278.309 1400.15 277.936 1396.67 277.6C1392.84 277.232 1389.23 276.927 1385.83 276.685C1382.51 276.365 1379.83 276.193 1377.77 276.166L1378.02 273.618C1381.6 273.792 1384.36 273.671 1386.28 273.257C1388.21 272.842 1389.55 271.814 1390.31 270.172C1391.15 268.539 1391.74 266.024 1392.07 262.626Z" fill="white"/>
<path d="M1115.52 159.084C1122.02 155.681 1129.22 154.36 1137.12 155.121C1142.73 155.661 1147.23 156.952 1150.63 158.994C1154.13 160.96 1157.17 163.182 1159.76 165.66C1161.34 167.098 1162.6 167.391 1163.54 166.538C1164.57 165.609 1165.43 163.334 1166.12 159.715L1169.05 159.997C1168.58 163.123 1168.09 166.933 1167.57 171.427C1167.05 175.921 1166.43 181.862 1165.72 189.252L1162.79 188.97C1162.55 185.26 1162.28 182.319 1161.97 180.147C1161.67 177.889 1161.22 175.959 1160.6 174.356C1160.07 172.762 1159.28 171.143 1158.24 169.5C1155.94 165.764 1152.87 162.939 1149.02 161.025C1145.19 159.027 1141.06 157.815 1136.64 157.39C1132.48 156.989 1128.6 157.686 1125 159.483C1121.49 161.202 1118.31 163.897 1115.47 167.567C1112.72 171.245 1110.4 175.779 1108.51 181.17C1106.7 186.568 1105.47 192.707 1104.8 199.587C1104.79 199.773 1104.77 199.957 1104.75 200.141L1092.01 198.914C1092.01 198.899 1092.01 198.885 1092.01 198.87C1092.93 189.357 1095.47 181.2 1099.64 174.401C1103.81 167.601 1109.1 162.496 1115.52 159.084Z" fill="white"/>
<path d="M1249.55 214.087L1237.7 212.946L1240.82 180.54C1241.12 177.397 1241.09 175.079 1240.72 173.586C1240.36 172.008 1239.44 170.891 1237.96 170.234C1236.57 169.5 1234.44 168.952 1231.56 168.589L1231.8 166.04C1233.58 166.297 1235.9 166.607 1238.78 166.97C1241.66 167.333 1244.76 167.674 1248.07 167.993C1251.05 168.28 1253.98 168.519 1256.88 168.713C1259.86 168.914 1262.33 169.066 1264.29 169.17L1264.05 171.718C1261.15 171.525 1258.91 171.652 1257.32 172.099C1255.83 172.47 1254.75 173.395 1254.1 174.875C1253.45 176.27 1252.97 178.538 1252.67 181.681L1249.55 214.087Z" fill="white"/>
<path d="M1306.44 173.486C1308.66 173.614 1310.45 173.701 1311.81 173.747L1311.57 176.295C1308.67 176.102 1306.42 176.314 1304.82 176.931C1303.3 177.556 1302.21 178.694 1301.54 180.344C1300.86 181.993 1300.37 184.39 1300.07 187.533L1297.07 218.664L1294.14 218.382L1297.14 187.25C1297.44 184.107 1297.29 181.65 1296.69 179.877C1296.18 178.113 1295.11 176.767 1293.48 175.839C1291.86 174.911 1289.6 174.265 1286.72 173.902L1286.97 171.354C1288.49 171.586 1290.48 171.863 1292.93 172.186C1295.47 172.516 1297.81 172.783 1299.93 172.988C1302.14 173.201 1304.31 173.367 1306.44 173.486Z" fill="white"/>
<path d="M1429.98 185.385C1434.24 185.709 1438.11 185.997 1441.6 186.247C1440.95 189.442 1440.39 192.56 1439.93 195.602C1439.56 198.567 1439.29 200.856 1439.14 202.47C1438.94 204.508 1438.8 206.424 1438.71 208.216C1438.63 210.007 1438.56 211.587 1438.51 212.954L1435.58 212.672C1435.56 206.669 1435.2 201.919 1434.51 198.424C1433.83 194.843 1432.29 192.165 1429.89 190.391C1427.48 188.617 1423.61 187.472 1418.26 186.956L1411.38 186.294L1407.24 229.275L1395.39 228.134L1399.53 185.153L1392.65 184.49C1387.38 183.983 1383.36 184.367 1380.58 185.642C1377.88 186.926 1375.86 189.259 1374.5 192.644C1373.16 195.943 1371.9 200.537 1370.73 206.426L1367.8 206.144C1368.1 204.801 1368.34 203.238 1368.51 201.454C1368.77 199.678 1368.99 197.771 1369.19 195.733C1369.34 194.119 1369.48 191.817 1369.6 188.828C1369.81 185.762 1369.9 182.599 1369.87 179.338C1373.43 179.767 1377.28 180.224 1381.44 180.71C1385.68 181.204 1389.92 181.655 1394.17 182.064C1398.41 182.473 1402.28 182.846 1405.76 183.181C1409.24 183.517 1413.07 183.885 1417.23 184.286C1421.48 184.695 1425.73 185.061 1429.98 185.385Z" fill="white"/>
</svg>
